<svg id="レイヤー_1" data-name="レイヤー 1" xmlns="http://www.w3.org/2000/svg" width="263.59" height="17.78" viewBox="0 0 263.59 17.78"><defs><style>.cls-1{fill:#e6e6e6;}</style></defs><path class="cls-1" d="M0,11.88l3.38-.33a4.09,4.09,0,0,0,1.23,2.5,3.74,3.74,0,0,0,2.51.8,3.89,3.89,0,0,0,2.53-.71,2.1,2.1,0,0,0,.85-1.66,1.57,1.57,0,0,0-.36-1,2.88,2.88,0,0,0-1.25-.74c-.4-.14-1.33-.39-2.77-.75A9.46,9.46,0,0,1,2.2,8.25,4.5,4.5,0,0,1,.62,4.79a4.38,4.38,0,0,1,.75-2.45A4.65,4.65,0,0,1,3.51.6,8.55,8.55,0,0,1,6.89,0a7.22,7.22,0,0,1,4.87,1.42A5,5,0,0,1,13.48,5.2L10,5.36a3,3,0,0,0-1-1.91,3.47,3.47,0,0,0-2.19-.58,4,4,0,0,0-2.37.62,1.25,1.25,0,0,0-.55,1.07,1.33,1.33,0,0,0,.51,1A9.1,9.1,0,0,0,7.64,6.75,16.41,16.41,0,0,1,11.38,8a4.71,4.71,0,0,1,1.9,1.74A5.09,5.09,0,0,1,14,12.47a5,5,0,0,1-.82,2.76,5,5,0,0,1-2.32,1.92,9.71,9.71,0,0,1-3.74.63,7.4,7.4,0,0,1-5-1.51A6.54,6.54,0,0,1,0,11.88Z"/><path class="cls-1" d="M27.71,8.71l-3.24.58a2.34,2.34,0,0,0-.75-1.46,2.2,2.2,0,0,0-1.5-.49,2.43,2.43,0,0,0-2,.85A4.32,4.32,0,0,0,19.52,11a5,5,0,0,0,.75,3.13,2.43,2.43,0,0,0,2,.91,2.24,2.24,0,0,0,1.53-.53,3.2,3.2,0,0,0,.84-1.84l3.24.55A5.78,5.78,0,0,1,26,16.62a6,6,0,0,1-3.84,1.13A5.68,5.68,0,0,1,17.76,16a6.69,6.69,0,0,1-1.62-4.77,6.7,6.7,0,0,1,1.63-4.8,5.78,5.78,0,0,1,4.4-1.71,6,6,0,0,1,3.62,1A5.47,5.47,0,0,1,27.71,8.71Z"/><path class="cls-1" d="M33.49.29V6.61a4.95,4.95,0,0,1,5.86-1.44,3.34,3.34,0,0,1,1.38,1.08,3.77,3.77,0,0,1,.63,1.45,13.21,13.21,0,0,1,.17,2.47v7.3H38.24V10.9a9.52,9.52,0,0,0-.19-2.49,1.55,1.55,0,0,0-.66-.83,2.11,2.11,0,0,0-1.19-.31,2.78,2.78,0,0,0-1.47.39,2.32,2.32,0,0,0-.94,1.21,7.09,7.09,0,0,0-.3,2.37v6.23H30.2V.29Z"/><path class="cls-1" d="M44.11,11.07a6.7,6.7,0,0,1,.81-3.17,5.58,5.58,0,0,1,2.29-2.35,6.89,6.89,0,0,1,3.31-.8,6.22,6.22,0,0,1,4.63,1.83A6.34,6.34,0,0,1,57,11.21a6.4,6.4,0,0,1-1.82,4.69,6.17,6.17,0,0,1-4.59,1.85A7.14,7.14,0,0,1,47.28,17a5.29,5.29,0,0,1-2.36-2.27A7.53,7.53,0,0,1,44.11,11.07Zm3.37.18a4.18,4.18,0,0,0,.88,2.84,2.82,2.82,0,0,0,2.17,1,2.78,2.78,0,0,0,2.16-1,4.15,4.15,0,0,0,.88-2.86,4.09,4.09,0,0,0-.88-2.82,2.78,2.78,0,0,0-2.16-1,2.82,2.82,0,0,0-2.17,1A4.18,4.18,0,0,0,47.48,11.25Z"/><path class="cls-1" d="M58.77,11.07a6.7,6.7,0,0,1,.81-3.17,5.58,5.58,0,0,1,2.29-2.35,6.89,6.89,0,0,1,3.31-.8,6.22,6.22,0,0,1,4.63,1.83,6.34,6.34,0,0,1,1.8,4.63,6.4,6.4,0,0,1-1.82,4.69,6.17,6.17,0,0,1-4.59,1.85A7.14,7.14,0,0,1,61.94,17a5.29,5.29,0,0,1-2.36-2.27A7.53,7.53,0,0,1,58.77,11.07Zm3.37.18A4.18,4.18,0,0,0,63,14.09a2.82,2.82,0,0,0,2.17,1,2.78,2.78,0,0,0,2.16-1,4.15,4.15,0,0,0,.88-2.86,4.09,4.09,0,0,0-.88-2.82,2.78,2.78,0,0,0-2.16-1,2.82,2.82,0,0,0-2.17,1A4.18,4.18,0,0,0,62.14,11.25Z"/><path class="cls-1" d="M74.19,17.47V.29h3.29V17.47Z"/><path class="cls-1" d="M87.56,17.47V.29h7.3a12.49,12.49,0,0,1,4,.47,3.88,3.88,0,0,1,2,1.64,5,5,0,0,1,.75,2.71,4.61,4.61,0,0,1-1.13,3.19,5.47,5.47,0,0,1-3.4,1.59,8.31,8.31,0,0,1,1.86,1.44,21.41,21.41,0,0,1,2,2.79l2.1,3.35H98.86l-2.51-3.74a24.45,24.45,0,0,0-1.83-2.52,2.58,2.58,0,0,0-1-.72,6.07,6.07,0,0,0-1.75-.19H91v7.17ZM91,7.56H93.6a13.23,13.23,0,0,0,3.11-.21,1.91,1.91,0,0,0,1-.73A2.25,2.25,0,0,0,98,5.33a2.11,2.11,0,0,0-.46-1.4,2.15,2.15,0,0,0-1.31-.67c-.28,0-1.13-.06-2.53-.06H91Z"/><path class="cls-1" d="M113.05,17.47V15.61a4.78,4.78,0,0,1-1.79,1.57,5,5,0,0,1-2.33.57,4.52,4.52,0,0,1-2.25-.55,3.23,3.23,0,0,1-1.45-1.54,7.1,7.1,0,0,1-.44-2.76V5h3.29v5.72a15.88,15.88,0,0,0,.18,3.21,1.75,1.75,0,0,0,.67.94,2,2,0,0,0,1.21.35,2.61,2.61,0,0,0,1.52-.47,2.35,2.35,0,0,0,.91-1.15,13.35,13.35,0,0,0,.25-3.35V5h3.29V17.47Z"/><path class="cls-1" d="M119.52,17.47V.29h3.29V17.47Z"/><path class="cls-1" d="M133.39,13.51l3.29.55a5.41,5.41,0,0,1-2,2.75,5.87,5.87,0,0,1-3.42.94,5.55,5.55,0,0,1-4.8-2.12,7.12,7.12,0,0,1-1.23-4.29,6.9,6.9,0,0,1,1.61-4.84,5.33,5.33,0,0,1,4.09-1.75,5.53,5.53,0,0,1,4.39,1.83c1.07,1.22,1.58,3.1,1.53,5.62H128.6a3.3,3.3,0,0,0,.8,2.28,2.5,2.5,0,0,0,1.9.81,2,2,0,0,0,1.3-.42A2.59,2.59,0,0,0,133.39,13.51Zm.19-3.33A3.15,3.15,0,0,0,132.84,8a2.24,2.24,0,0,0-1.71-.74,2.29,2.29,0,0,0-1.78.78,3,3,0,0,0-.69,2.13Z"/><path class="cls-1" d="M138.38,13.92l3.3-.5a2.45,2.45,0,0,0,.86,1.46,2.88,2.88,0,0,0,1.8.5,3.27,3.27,0,0,0,1.92-.47,1.06,1.06,0,0,0,.44-.88.84.84,0,0,0-.24-.62,2.62,2.62,0,0,0-1.1-.44,17.7,17.7,0,0,1-5.05-1.6,3.2,3.2,0,0,1-1.48-2.8,3.45,3.45,0,0,1,1.28-2.72,5.93,5.93,0,0,1,4-1.1,6.89,6.89,0,0,1,3.8.83A4.2,4.2,0,0,1,149.58,8l-3.11.57a1.92,1.92,0,0,0-.75-1.11,2.75,2.75,0,0,0-1.59-.39,3.46,3.46,0,0,0-1.86.37.77.77,0,0,0-.38.66.72.72,0,0,0,.33.6,12.32,12.32,0,0,0,3.07.93A9.19,9.19,0,0,1,149,11.13a3.05,3.05,0,0,1,1,2.45,3.77,3.77,0,0,1-1.43,2.94,6.32,6.32,0,0,1-4.23,1.23,6.93,6.93,0,0,1-4-1A4.73,4.73,0,0,1,138.38,13.92Z"/><path class="cls-1" d="M159.56.29h6.34a12.32,12.32,0,0,1,3.27.33,5.83,5.83,0,0,1,2.59,1.58A7.45,7.45,0,0,1,173.4,5,12.51,12.51,0,0,1,174,9.05a11.31,11.31,0,0,1-.52,3.65,7.72,7.72,0,0,1-1.84,3,6.22,6.22,0,0,1-2.44,1.37,10.61,10.61,0,0,1-3.07.36h-6.53ZM163,3.2V14.58h2.59a9.35,9.35,0,0,0,2.1-.17,3.15,3.15,0,0,0,1.4-.71A3.73,3.73,0,0,0,170,12a11.4,11.4,0,0,0,.35-3.15A10.39,10.39,0,0,0,170,5.84a4,4,0,0,0-1-1.67,3.25,3.25,0,0,0-1.6-.81,15.9,15.9,0,0,0-2.85-.16Z"/><path class="cls-1" d="M179.34,8.82l-3-.53a4.63,4.63,0,0,1,1.73-2.68,6.42,6.42,0,0,1,3.66-.86,7.87,7.87,0,0,1,3.28.52,3.26,3.26,0,0,1,1.51,1.32A6.71,6.71,0,0,1,187,9.54l0,3.84a12.86,12.86,0,0,0,.16,2.42,6.72,6.72,0,0,0,.59,1.67h-3.26c-.08-.22-.19-.54-.32-1-.05-.2-.09-.32-.11-.39a5.82,5.82,0,0,1-1.81,1.23,5,5,0,0,1-2,.41,4.23,4.23,0,0,1-3-1,3.44,3.44,0,0,1-1.1-2.64,3.5,3.5,0,0,1,.5-1.88,3.32,3.32,0,0,1,1.41-1.26,10.84,10.84,0,0,1,2.62-.77,17.89,17.89,0,0,0,3.2-.81V9a1.71,1.71,0,0,0-.47-1.35,2.8,2.8,0,0,0-1.77-.4,2.37,2.37,0,0,0-1.37.34A2.46,2.46,0,0,0,179.34,8.82Zm4.41,2.68c-.42.14-1.09.3-2,.5a6.45,6.45,0,0,0-1.8.57,1.39,1.39,0,0,0-.64,1.16,1.63,1.63,0,0,0,.51,1.2,1.81,1.81,0,0,0,1.32.5,2.86,2.86,0,0,0,1.7-.58,2.08,2.08,0,0,0,.78-1.09,6.32,6.32,0,0,0,.13-1.61Z"/><path class="cls-1" d="M195.94,5V7.65h-2.25v5a13.26,13.26,0,0,0,.06,1.77.72.72,0,0,0,.29.42,1,1,0,0,0,.56.16,4.24,4.24,0,0,0,1.33-.31l.28,2.55a6.55,6.55,0,0,1-2.6.49,4.32,4.32,0,0,1-1.61-.29,2.3,2.3,0,0,1-1.05-.78,3,3,0,0,1-.46-1.28,15.79,15.79,0,0,1-.11-2.32V7.65h-1.51V5h1.51V2.55L193.69.63V5Z"/><path class="cls-1" d="M200.68,8.82l-3-.53a4.63,4.63,0,0,1,1.73-2.68,6.42,6.42,0,0,1,3.66-.86,7.87,7.87,0,0,1,3.28.52,3.26,3.26,0,0,1,1.51,1.32,6.71,6.71,0,0,1,.44,2.95l0,3.84a12.86,12.86,0,0,0,.16,2.42,6.72,6.72,0,0,0,.59,1.67h-3.26c-.08-.22-.19-.54-.32-1-.05-.2-.09-.32-.11-.39a5.82,5.82,0,0,1-1.81,1.23,5,5,0,0,1-2,.41,4.23,4.23,0,0,1-3-1,3.44,3.44,0,0,1-1.1-2.64,3.5,3.5,0,0,1,.5-1.88,3.32,3.32,0,0,1,1.41-1.26,10.84,10.84,0,0,1,2.62-.77,17.89,17.89,0,0,0,3.2-.81V9a1.71,1.71,0,0,0-.47-1.35,2.8,2.8,0,0,0-1.77-.4,2.37,2.37,0,0,0-1.37.34A2.46,2.46,0,0,0,200.68,8.82Zm4.41,2.68c-.42.14-1.09.3-2,.5a6.45,6.45,0,0,0-1.8.57,1.39,1.39,0,0,0-.64,1.16,1.63,1.63,0,0,0,.51,1.2,1.81,1.81,0,0,0,1.32.5,2.86,2.86,0,0,0,1.7-.58,2.08,2.08,0,0,0,.78-1.09,6.32,6.32,0,0,0,.13-1.61Z"/><path class="cls-1" d="M211.43,17.47V.29h3.29V6.48a4.65,4.65,0,0,1,3.61-1.73,4.83,4.83,0,0,1,3.76,1.64,6.8,6.8,0,0,1,1.49,4.73A7.15,7.15,0,0,1,222.06,16a4.72,4.72,0,0,1-3.68,1.72,4.48,4.48,0,0,1-2.1-.53,4.88,4.88,0,0,1-1.79-1.58v1.83ZM214.7,11a5.26,5.26,0,0,0,.61,2.86,2.61,2.61,0,0,0,2.27,1.31,2.33,2.33,0,0,0,1.86-.93,4.59,4.59,0,0,0,.77-2.93,4.83,4.83,0,0,0-.78-3.08,2.43,2.43,0,0,0-2-.94,2.47,2.47,0,0,0-2,.92A4.22,4.22,0,0,0,214.7,11Z"/><path class="cls-1" d="M228.69,8.82l-3-.53a4.69,4.69,0,0,1,1.74-2.68,6.41,6.41,0,0,1,3.65-.86,7.89,7.89,0,0,1,3.29.52,3.32,3.32,0,0,1,1.51,1.32,6.71,6.71,0,0,1,.44,2.95l0,3.84a12.86,12.86,0,0,0,.16,2.42,6.72,6.72,0,0,0,.59,1.67h-3.26c-.09-.22-.19-.54-.32-1-.05-.2-.09-.32-.11-.39a5.94,5.94,0,0,1-1.81,1.23,5,5,0,0,1-2.05.41,4.23,4.23,0,0,1-3-1,3.45,3.45,0,0,1-1.11-2.64,3.51,3.51,0,0,1,.51-1.88,3.2,3.2,0,0,1,1.41-1.26,10.7,10.7,0,0,1,2.62-.77,18.14,18.14,0,0,0,3.2-.81V9a1.71,1.71,0,0,0-.47-1.35,2.8,2.8,0,0,0-1.77-.4,2.35,2.35,0,0,0-1.37.34A2.4,2.4,0,0,0,228.69,8.82Zm4.41,2.68c-.42.14-1.09.3-2,.5a6.47,6.47,0,0,0-1.79.57,1.39,1.39,0,0,0-.64,1.16,1.63,1.63,0,0,0,.51,1.2,1.79,1.79,0,0,0,1.31.5,2.84,2.84,0,0,0,1.7-.58,2.1,2.1,0,0,0,.79-1.09,6.83,6.83,0,0,0,.13-1.61Z"/><path class="cls-1" d="M238.42,13.92l3.3-.5a2.45,2.45,0,0,0,.86,1.46,2.9,2.9,0,0,0,1.8.5,3.25,3.25,0,0,0,1.92-.47,1.06,1.06,0,0,0,.44-.88.84.84,0,0,0-.24-.62,2.62,2.62,0,0,0-1.1-.44,17.82,17.82,0,0,1-5.05-1.6,3.21,3.21,0,0,1-1.47-2.8,3.44,3.44,0,0,1,1.27-2.72,5.93,5.93,0,0,1,4-1.1,6.87,6.87,0,0,1,3.8.83A4.2,4.2,0,0,1,249.62,8l-3.1.57a2,2,0,0,0-.76-1.11,2.75,2.75,0,0,0-1.59-.39,3.46,3.46,0,0,0-1.86.37.77.77,0,0,0-.38.66.72.72,0,0,0,.33.6,12.3,12.3,0,0,0,3.08.93A9.13,9.13,0,0,1,249,11.13a3.05,3.05,0,0,1,1,2.45,3.74,3.74,0,0,1-1.43,2.94,6.32,6.32,0,0,1-4.23,1.23,6.92,6.92,0,0,1-4-1A4.7,4.7,0,0,1,238.42,13.92Z"/><path class="cls-1" d="M260.13,13.51l3.28.55a5.34,5.34,0,0,1-2,2.75,5.87,5.87,0,0,1-3.42.94,5.54,5.54,0,0,1-4.8-2.12A7.12,7.12,0,0,1,252,11.34a6.86,6.86,0,0,1,1.62-4.84,5.32,5.32,0,0,1,4.09-1.75,5.53,5.53,0,0,1,4.38,1.83c1.07,1.22,1.59,3.1,1.54,5.62h-8.25a3.3,3.3,0,0,0,.8,2.28,2.49,2.49,0,0,0,1.9.81,2,2,0,0,0,1.3-.42A2.59,2.59,0,0,0,260.13,13.51Zm.19-3.33A3.15,3.15,0,0,0,259.58,8a2.25,2.25,0,0,0-1.71-.74,2.29,2.29,0,0,0-1.78.78,3,3,0,0,0-.69,2.13Z"/></svg>